<svg xmlns="http://www.w3.org/2000/svg" width="145" height="64" viewBox="0 0 145 64"><g><g><path fill="#1d1d1b" d="M141.242 30.726l-.108.021h-.15l-.172.044-.215.064-.237.064-.257.064-.302.108-.301.106-.323.107-.366.129-.366.172-.387.15-.387.171-.409.193-.408.214-.409.193-.43.236-.41.257-.43.236-.408.278-.41.279-.408.3-.408.3-.367.321-.388.32-.343.345-.345.362-.3.366-.28.385-.28.387-.237.406-.214.408-.173.427-.15.408-.108.428-.086.407-.044.408-.021.386v.407l.044.384.064.365.086.386.108.364.129.364.15.344.173.342.215.322.214.32.237.322.237.3.259.278.278.28.302.278.301.236.323.235.322.236.345.215.344.192.344.193.366.15.344.15.366.129.366.128.365.086.194.043.173.064.193.064.172.044.172.085.172.064.15.064.173.086.15.087.172.085.152.085.128.108.15.084.13.108.129.107.15.107.109.107.128.108.108.128.108.107.107.13.086.106.086.129.087.15.085.128.065.129.065.128.064.13.043.127.043.15.022.13.043.15.021.127v.15l.022.15v.279l-.022.15-.021.129-.022.15-.021.129-.044.15-.064.127-.064.15-.065.129-.065.15-.085.128-.108.129-.107.15-.11.13-.149.127-.129.129-.151.15-.172.107-.172.15-.193.129-.194.128-.215.107-.236.13-.237.128-.259.107-.258.128-.302.108-.3.107-.603.236-.603.235-.58.236-.58.256-.28.13-.26.128-.257.108-.258.149-.258.129-.215.129-.236.149-.238.129-.215.15-.193.15-.194.15-.194.15-.173.149-.15.15-.15.172-.13.15-.128.15-.108.172-.086.172-.086.17-.065.172-.064.17-.043.173v.193l-.022.128v.171l.022.15v.172l.022.17.021.172.043.172.043.193.086.343.065.193.085.17.087.172.064.172.107.15.088.171.107.15.129.128.128.129.108.13.151.105.15.087.15.085.174.065.171.042.172.022.193.022.195-.022.192-.022.238-.064.215-.064.236-.107.495-.236.474-.236.452-.236.452-.256.43-.236.409-.236.387-.257.387-.236.388-.236.344-.257.343-.236.345-.235.603-.45.58-.45.495-.406.473-.386.409-.343.388-.301.3-.257.28-.192.13-.085.129-.065.085-.044.108-.041.086-.044.087-.085.107-.13.108-.15.107-.213.108-.215.108-.256.085-.28.107-.3.108-.32.087-.343.085-.365.087-.364.086-.387.064-.407.043-.384.108-1.221v-.795l-.02-.384-.045-.387-.043-.363-.086-.343-.086-.322-.129-.32-.13-.302-.17-.256-.173-.235-.215-.215-.237-.172-.517-.32-.515-.3-.517-.301-.539-.3-.537-.279-1.076-.556-.516-.258-.517-.279-.473-.235-.473-.258-.43-.235-.387-.214-.367-.235-.171-.086-.15-.108-.152-.106-.129-.107-.129-.086-.107-.129-.087-.108-.064-.128-.043-.128-.043-.15v-.45l.043-.15.086-.343.086-.17.086-.172.108-.194.108-.172.128-.192.13-.172.15-.192.15-.193.172-.192.195-.194.193-.193.194-.192.214-.194.216-.193.237-.192.236-.17.236-.195.26-.171.257-.192.28-.172.259-.149.257-.15.236-.13.238-.085.236-.085.215-.086.216-.064.193-.044.388-.064.344-.064.344-.043.323-.042.15-.044.151-.021.15-.044.15-.064.15-.063.152-.086.129-.107.15-.108.152-.128.15-.15.151-.193.15-.193.173-.215.15-.278.172-.278.172-.3.151-.321.13-.3.085-.3.087-.258.02-.256.022-.214-.022-.215-.02-.215-.066-.171-.086-.172-.086-.171-.107-.128-.13-.129-.15-.128-.15-.107-.15-.087-.345-.17-.172-.065-.195-.065-.171-.043-.194-.042-.172-.043-.193-.02-.345-.045-.3-.021-.28-.021zm-39.461 19.156l-.215-.022-.193-.065-.215-.063-.193-.065-.172-.107-.172-.107-.172-.107-.15-.128-.15-.13-.13-.127-.129-.13-.13-.127-.106-.15-.108-.129-.386-.515-.259-.364-.065-.107-.042-.107-.043-.15-.043-.15-.044-.214-.02-.193-.022-.236-.043-.256-.021-.536-.044-.58v-1.885l.022-.6.022-.578.021-.515.02-.428.023-.364.042-.257.022-.15.043-.064.087-.087.064-.02.064-.023.086-.02h.086l.086.02.172.022.215.064.194.044.214.064.345.106.537.13.709.192.816.214.86.215.839.214.408.086.388.086.364.064.323.042.15.043.13.021.107.023.128.042.087.043.086.021.086.043.065.043.063.043.044.043.042.042.043.064.023.044.021.043.043.128.02.107v.129l-.02.129-.022.15-.021.15v.15l-.021.15v.17l.021.193.063.215.044.258.064.256.065.322.022.322.021.17v.343l-.064.58-.044.192-.064.215-.086.192-.086.214-.108.192-.128.215-.15.214-.172.235-.194.215-.215.214-.237.215-.257.214-.302.214-.3.236-.323.214-.322.172-.301.128-.28.129-.279.086-.279.064-.258.043-.237.02h-.236zm15.257-.266l-.042-.042-.044-.064-.042-.065-.044-.085-.043-.108-.021-.107-.022-.107-.021-.149-.022-.13v-.17l-.021-.15v-.364l.021-.193v-.192l.022-.194.064-.428.043-.428.065-.236.043-.235.043-.236.193-.706.086-.215.086-.235.087-.257.108-.257.107-.258.13-.255.128-.28.13-.277.171-.3.15-.279.323-.599.366-.578.366-.578.367-.578.192-.279.194-.256.194-.258.172-.236.194-.235.172-.215.172-.213.172-.193.171-.17.151-.172.172-.13.151-.126.13-.109.129-.064.128-.063.108-.022.107-.022h.065l.086.022.065.022.064.063.065.043.043.065.086.17.021.086.023.086.021.107.02.236v.236l-.02.256-.021.236-.044.235-.021.215-.065.364-.043.235-.022.107-.065.171-.086.257-.107.3-.258.728-.322.835-.345.9-.323.856-.28.77-.214.6-.044.129-.064.129-.064.128-.087.15-.086.149-.085.13-.108.15-.108.149-.237.322-.258.3-.258.298-.28.3-.3.3-.28.256-.258.259-.259.213-.236.193-.216.171-.107.065-.086.042-.086.043-.065.043-.065.021h-.108zm-12.414-10.091l-.236-.065-.238-.064-.257-.106-.258-.107-.28-.108-.279-.15-.301-.129-.302-.17-.15-.085-.152-.085-.128-.108-.108-.085-.107-.108-.086-.106-.085-.13-.088-.106-.064-.128-.064-.127-.043-.13-.022-.128-.043-.128-.022-.108v-.384l.022-.128.021-.107.044-.107.02-.107.066-.107.064-.106.043-.086.086-.086.086-.086.065-.063.107-.064.108-.065.086-.043.129-.022.108-.041.236-.023.194-.02h.409l.108.02.086.023.085.02.194.086.258.107.172.063.173.066.236.064.28.042.129.043.129.065.13.042.128.064.086.085.108.065.086.085.086.086.064.107.066.107.063.106.065.108.043.106.022.13.043.106.02.128.022.107.022.128v.621l-.022.127-.042.215-.065.213-.021.108-.022.106-.043.086-.043.085-.042.064-.044.065-.065.064-.064.064-.064.043-.065.043-.065.022-.085.041h-.066l-.107.022h-.258l-.107-.022h-.108zM37.22 0l-3.615.322-1.162 3.127-.171 30.191-8.069.493-.279-31.82V1.63l-.022-.193-.02-.194-.023-.17-.021-.13-.043-.149-.022-.108-.065-.107-.043-.086-.064-.064-.065-.064-.064-.021-.086-.021h-6.089l-.086.085-.086.085-.085.086-.066.086-.043.086-.064.107-.064.085-.044.107-.043.108-.021.107-.043.106-.021.13-.043.235-.044.236-.086 6.236v27.405L0 37.239v2.958l16.135-1.95.173 23.612v.193l.021.172.021.15.044.129.064.149.043.129.087.106.064.087.086.086.086.085.107.064.13.044.129.042.13.022.15.02h.15l5.594-.32h.086l.065-.022h.064l.043-.043.064-.021.065-.021.043-.044.043-.042.044-.043.042-.065.043-.042.022-.064.064-.15.043-.151.043-.17.043-.194.023-.192v-.215l.02-.236v-.235l-.02-.258v-.256l-.173-21.492.173-1.65 7.895-.321.323 25.112 1.656 1.136 2.969-.492 1.162-.987.15-21.49.172-3.944.13-.021.343-.043.54-.085.687-.086.387-.043.431-.064.43-.021.452-.043.452-.044.473-.02.474-.022h.472l.215.021.194.021.194.023.172.042.15.064.15.086.11.064.106.086.108.107.086.108.064.106.065.107.043.13.043.106.022.13.02.105.022.13.023.128v.236l-.023.235-.042.192-.043.302-.022.105-.021.023-.043.086-.065.127-.086.172-.085.236-.13.279-.13.343-.171.364-.173.43-.193.47-.194.535-.215.578-.236.622-.238.665-.236.707-.28.75-.107.406-.086.387-.065.363-.043.366-.043.384v.365l.022.343.043.342.042.344.066.342.085.321.087.3.107.301.13.277.258.558.15.236.15.257.173.215.15.214.172.192.173.192.171.15.152.15.171.13.172.128.151.086.172.086.15.064.13.021.15.022h.129l.13-.022.129-.042.15-.043.151-.065.151-.085.171-.086.173-.086.173-.107.365-.236.365-.257.366-.279.366-.278.344-.3.345-.279.322-.277.258-.259.258-.235.172-.214.151-.15.087-.129.128-.214.173-.321.215-.387.257-.427.151-.236.151-.236.194-.256.193-.259.194-.256.236-.257.258-.258.259-.257.128-.085.11-.043.106.022.108.085.086.129.085.15.087.213.064.236.086.28.086.3.065.32.086.344.086.364.086.364.087.385.106.386.109.365.128.385.13.365.15.343.172.342.172.322.194.278.216.257.236.235.258.172.28.172.3.085.323.064h.366l.388-.064.408-.128.41-.171.408-.236.387-.28.388-.298.344-.365.344-.385.344-.43.3-.449.302-.472.302-.493.258-.536.28-.535.258-.557.237-.558.215-.578.237-.6.215-.578.193-.579.194-.577.193-.579.345-1.136.322-1.05.301-.986.28-.857.13-.385.128-.365.13-.3.128-.278.13-.215.107-.214.13-.192.107-.15.129-.13.107-.106.108-.107.108-.064.107-.064.108-.022.107-.022h.086l.108.022.086.022.086.042.086.042.086.065.086.086.064.085.087.087.064.084.065.108.087.107.043.107.128.236.087.236.085.235.043.236.044.107.021.128.022.129.021.15.021.343.022.408v1.521l-.022.62v.665l-.021.729-.021.814-.022.835-.021.922-.022.985v1.03l-.022 1.113.022.536.043.493.064.45.086.429.108.363.129.344.15.298.173.259.173.235.193.214.215.171.215.13.237.128.236.085.237.086.258.044.258.042.237.022h.28l.236-.022.259-.022.236-.02.237-.044.236-.064.452-.107.388-.107.322-.107.259-.086.107-.043.129-.064.13-.108.15-.106.129-.172.15-.171.151-.194.15-.214.15-.235.345-.514.172-.28.345-.578.344-.62.344-.643.344-.644.323-.643.323-.62.28-.578.516-1.03.193-.407.108-.193.085-.214.088-.236.085-.235.086-.28.086-.277.086-.28.065-.3.151-.62.15-.643.152-.664.127-.622.109-.642.107-.601.108-.556.107-.493.087-.429.064-.343.043-.15.043-.107.021-.086.021-.064.044-.042.043-.044.043-.042.064-.044.066-.021.063-.02.065-.044.086-.02.171-.044.195-.022.215-.021h.409l.215.021.193.043.195.043.085.043.087.02.064.044.064.044.087.042.043.042.064.044.043.042.043.086v.15l.022.17v.215l-.022.258-.022.321-.021.322-.022.364-.085.835-.087.943-.107 1.008-.086 1.071-.043.535-.044.558-.021.556-.02.557-.022.558v1.071l.021.536.02.514.022.494.065.492.065.45.086.428.108.429.107.364.15.343.152.322.15.3.172.278.193.235.195.236.192.214.195.193.236.15.216.15.214.129.237.106.237.065.237.064.258.044.257.02.258-.02.26-.023.258-.042.257-.064.28-.086.258-.107.28-.15.258-.15.28-.171.279-.193.28-.193.259-.235.258-.258.279-.278.259-.3.258-.3.28-.343.236-.322.237-.3.215-.235.215-.215.173-.193.192-.15.173-.107.15-.106.151-.043.15-.044h.13l.151.022.129.022.15.064.15.085.151.107.15.129.152.13.172.15.172.17.386.386.453.407.258.235.258.215.302.256.3.237.345.235.366.259.365.256.43.236.41.235.408.192.408.194.367.128.386.129.345.085.366.086.322.044.346.042h.322l.301-.022.3-.042.28-.043.302-.065.258-.085.28-.086.258-.107.258-.129.26-.15.257-.129.236-.171.215-.15.473-.343.452-.364.43-.386.43-.363.452-.386.195-.193.192-.215.173-.256.129-.257.15-.28.108-.32.108-.3.086-.323.065-.341.064-.365.064-.364.043-.343.044-.386.022-.364.042-.364.021-.365.023-.728.02-.707.044-.643.043-.6.043-.257.022-.258.064-.214.042-.214.066-.171.064-.15.107-.129.087-.085.215-.13.215-.128.236-.128.216-.107.214-.108.216-.106.237-.086.215-.064.236-.086.216-.064.236-.044.237-.042.236-.022.237-.021h.452l-.022.257-.022.257-.064.257-.042.258-.044.257-.042.257-.044.277-.02.258-.086.664-.066.73-.086.748-.064.751-.065.686-.044.643-.063.514-.043.407v.45l.021.3.064.364.043.386.087.43.086.427.107.45.108.45.107.45.13.428.128.407.086.194.064.17.087.172.065.172.086.15.065.106.085.13.065.085.086.106.086.087.086.063.087.087.085.064.108.064.107.044.086.042.216.085.215.065.194.043.193.042.193.022.173.022h.15l.13.021.214-.021h.066l.172-.13.43-.363.645-.515.775-.664.409-.343.408-.364.775-.729.366-.364.3-.342.151-.171.13-.15.107-.15.107-.15.087-.13.107-.128.086-.107.085-.107.11-.086.085-.085.086-.065.086-.064.086-.043.086-.064.086-.043.064-.022.151-.064.15-.042h.367l.086.02.129.043h.043l.668 4.757 3.936-.171.365-.343.969-.964.021-.107v-.343l.022-.536v-.707l.021-1.886-.021-2.442-.022-2.914-.021-3.236-.043-3.493-.044-3.599-.064-3.622-.064-3.556-.064-3.343-.066-3.064-.042-1.392-.044-1.265-.042-1.135-.044-1.007-.043-.836-.042-.685-.066-.494-.042-.299-.086-.364-.086-.322-.108-.236-.086-.214-.042-.086-.044-.085-.043-.065-.129-.128-.065-.043-.043-.022-.064-.042h-.172l-.065.02-.129.044h-.216l-.171-.022-.172-.022-.194-.02-.215-.023-.215-.02-.215-.043-.194-.022-.28.108-.301.128-.322.15-.323.129-.151.064-.13.043-.128.043-.108.021-.086.021h-.128l-.022-.02v.857l.022 1.07.02 1.415.043 1.65.022 1.885.022 2.015.021 2.077.023 2.1v3.943l-.044 1.736-.022.75v.707l-.043.621-.042.515-.022.45-.066.32-.042.215-.065.107-.085.042-.087.022-.13.043-.15.044-.343.064-.43.106-.475.086-.515.107-.56.108-.559.106-.581.15-.559.13-.281.085-.278.064-.28.086-.237.085-.258.086-.237.107-.215.085-.215.109-.194.106-.172.108-.13.107-.15.128-.13.108-.128.149-.15.129-.172.129-.172.128-.195.15-.215.129-.193.15-.237.129-.216.149-.236.129-.237.128-.257.129-.237.128-.259.107-.257.13-.26.106-.278.086-.258.086-.258.085-.259.086-.259.043-.257.064-.26.02-.256.044h-.474l-.236-.021-.215-.043-.238-.043-.215-.064-.192-.108-.194-.085-.195-.128-.215-.128-.193-.172-.215-.171-.216-.172-.214-.172-.237-.192-.452-.407-.494-.43-.26-.213-.258-.193-.279-.214-.258-.193-.28-.215-.3-.17-.302-.194-.302-.15-.322-.171-.323-.129-.344-.15-.345-.107-.365-.085-.365-.086-.388-.044-.388-.02h-.817l-.43.064-.451.064-.431.107-.388.108-.387.128-.366.128-.322.15-.323.171-.28.173-.279.192-.259.215-.258.235-.237.236-.214.256-.194.28-.215.3-.194.32-.194.344-.192.342-.173.386-.194.386-.195.428-.386.9-.409 1.008-.43 1.093-.495 1.198-.28.644-.28.663-.322.709-.322.727-.323.686-.322.6-.28.515-.28.45-.26.343-.213.277-.216.215-.194.13-.171.084-.172.022-.151-.043-.13-.086-.128-.128-.086-.172-.237-.75-.044-.321-.042-.343-.022-.364-.021-.365-.021-.385.02-.386v-.386l.022-.407.022-.407.022-.385.042-.365.043-.364.065-.343.042-.321.065-.279.066-.278.042-.28.043-.277.02-.258.023-.256.022-.258v-.514l-.022-.236v-.235l-.043-.236-.043-.235-.042-.215-.044-.214-.064-.235-.087-.194-.086-.214-.086-.193-.086-.171-.108-.194-.128-.17-.13-.171-.129-.151-.128-.15-.172-.15-.152-.13-.343-.255-.194-.108-.194-.085-.193-.108-.216-.065-.409-.149-.387-.107-.344-.107-.301-.086-.172-.043-.13-.064-.15-.064-.128-.043-.109-.086-.128-.086-.108-.085-.129-.085-.108-.13-.107-.107-.109-.15-.106-.15-.087-.17-.107-.194-.086-.192-.108-.237-.108-.257-.085-.278-.108-.3-.086-.322-.107-.364-.11-.385-.084-.408-.13-.45-.107-.428-.107-.407-.151-.343-.15-.321-.152-.278-.172-.237-.171-.214-.172-.171-.173-.15-.193-.13-.195-.084-.193-.064-.215-.043-.194-.022h-.408l-.193.042-.194.023-.194.064-.194.042-.194.086-.193.064-.172.064-.173.087-.301.149-.28.15-.129.043-.107.064-.107.022-.065.021-.086.043-.065.042-.064.064-.064.109-.043.106-.065.13-.044.149-.02.15-.044.171-.022.193-.02.193-.022.214v.45l.022.236.02.235.022.257.022.236.042.258.044.257.065.236.043.256.064.236.086.235.086.237.108.235.086.214.128.215.109.192.129.193.15.172.15.172.152.15.128.17.108.15.129.151.108.17.064.15.086.172.065.172.064.15.064.17.022.152.043.149.023.15.02.15.022.15.021.13v.277l-.021.236-.022.214-.02.194-.044.256-.022.107-.022.021-.021.087-.043.149-.064.215-.087.256-.107.323-.13.364-.128.407-.15.45-.173.515-.194.556-.215.6-.215.643-.237.665-.258.727-.258.75-.151.365-.128.321-.13.278-.13.258-.128.214-.13.192-.106.15-.13.13-.107.107-.108.064-.086.065-.107.02-.107.023-.088-.022-.085-.021-.086-.044-.086-.043-.065-.042-.063-.086-.066-.064-.064-.087-.065-.085-.043-.065-.043-.085-.086-.15-.043-.127-.042-.087v-.107l-.023-.193v-.75l-.021-.493v-1.2l.021-.642v-.643l.023-.664.021-.622.043-.6.021-.278.022-.257.02-.257.044-.215.022-.214.043-.171.043-.15.043-.13.042-.106.022-.107v-.108l-.022-.107-.02-.107-.044-.128-.064-.108-.087-.107-.085-.128-.087-.107-.128-.107-.237-.236-.151-.108-.151-.106-.15-.13-.366-.235-.366-.214-.408-.236-.409-.236-.86-.449-.883-.429-.194-.128-.215-.107-.171-.108-.173-.106-.172-.13-.129-.106-.15-.129-.13-.107-.107-.13-.107-.106-.108-.129-.087-.106-.085-.108-.065-.106-.065-.108-.065-.107-.085-.214-.086-.193-.044-.15-.021-.15-.043-.193v-.064l.021-.064.087-.108.107-.171.13-.236.064-.15.065-.15.064-.15.043-.17.065-.173.042-.171.022-.193.044-.193v-.363l-.044-.194-.022-.193-.086-.192-.085-.172-.108-.193-.13-.171-.171-.17-.194-.151-.215-.151-.258-.128-.301-.129-.323-.128-.387-.086-.41-.085-.408-.065-.409-.043h-.365l-.646.043-.301.065-.258.085-.237.107-.236.107-.216.129-.194.128-.172.171-.15.15-.13.172-.129.193-.085.171-.107.172-.088.193-.063.171-.065.194-.044.17-.043.171-.021.151-.043.15-.02.278-.023.193v.193l2.647 3.771.494 1.971h-.02l-.022.064-.022.108-.065.172-.085.214-.108.278-.108.343-.151.407-.171.493-.173.557-.236.642-.236.73-.26.813-.3.922-.323 1.007-.344 1.114-.195.557-.172.473-.193.427-.15.342-.173.28-.15.235-.15.193-.151.128-.152.086-.128.044h-.13l-.127-.022-.13-.064-.108-.086-.107-.107-.108-.15-.086-.15-.107-.172-.087-.17-.085-.194-.065-.193-.065-.192-.064-.194-.043-.192-.108-.343-.065-.279-.043-.193v-.064l-.042-.15-.087-.406-.15-.622-.15-.793-.087-.428-.086-.472-.086-.492-.086-.515-.129-1.029-.043-.493-.043-.514-.021-.214-.044-.214-.064-.171-.087-.15-.086-.108-.086-.107-.128-.065-.13-.064-.128-.042-.151-.02h-.301l-.15.041-.174.021-.15.064-.172.044-.172.065-.172.085-.151.085-.15.065-.302.172-.258.15-.409.256-.15.107v.043l-.022.064-.043.108-.086.171-.086.214-.129.257-.173.322-.193.386-.237.449-.279.515-.323.578-.366.643-.429.729-.474.771-.517.878-.58.943-.302.472-.279.407-.258.385-.216.322-.215.279-.193.256-.172.193-.151.172-.15.15-.108.107-.108.085-.086.044-.086.043h-.064l-.044-.022-.043-.021-.043-.044-.02-.063-.023-.087v-.428l.023-.171.042-.13v-.106l.021-.043.043-.172.173-.427.236-.665.28-.772.323-.835.323-.793.172-.386.15-.342.15-.28.108-.256.173-.236.215-.321.258-.343.322-.407.69-.858.752-.877.71-.858.602-.686.41-.47.171-.194 2.625-1.478.667-1.136V33.64l-.99-.815-3.786-.321-8.24.321-5.444.322-.15-31.668z"/></g></g></svg>