<?xml version="1.0" encoding="UTF-8"?>
<svg viewBox="0 0 156 23" xmlns="http://www.w3.org/2000/svg">
<path d="M0 22.472h6.235V.474H0z" fill="#fefefe"/>
<path d="m12.374 22.472h9.953l-9.953-11.778z" fill="#fefefe"/>
<path d="M12.023.473l9.601 11.338V5.658h6.136v16.814h6.202V5.658h6.223V.473z" fill="#fefefe"/>
<path d="M123.817.473V22.47h6.14v-8.674h8.296V8.99h-8.297V5.658h13.607v16.813h6.203V5.658h6.222V.473z" fill="#f9b411"/>
<path d="m110.43 0.058c6.426 0 11.635 5.12 11.635 11.435 0 6.317-5.21 11.437-11.635 11.437-6.426 0-11.635-5.12-11.635-11.437 0-6.315 5.21-11.436 11.635-11.436m0 17.117c3.192 0 5.78-2.543 5.78-5.68s-2.588-5.68-5.78-5.68c-3.19 0-5.777 2.543-5.777 5.68s2.586 5.68 5.777 5.68" fill="#f9b411"/>
<path d="M70.134.473c5.91 0 9.272 2.772 9.272 7.393 0 3.363-1.796 5.69-4.604 6.55l5.34 8.056H72.98l-4.508-7.05h-2.226v7.05h-6.203v-22h10.091m-.32 10.287c2.079 0 3.357-.823 3.357-2.552s-1.278-2.55-3.357-2.55h-3.568v5.102h3.568" fill="#fefefe"/>
<path d="M58.564 17.286H47.802v-3.488h8.296V8.989h-8.296V5.66h10.762V.472H41.663v21.999h16.901z" fill="#fefefe"/>
<path d="M91.705 16.304c0-2.473-10.973-2.402-10.973-9.566 0-1.846.88-3.544 2.48-4.78C84.778.746 86.9.078 89.185.078c3.527 0 6.84 1.163 8.995 3.415l-3.499 3.999c-1.55-1.686-3.845-2.376-5.16-2.376-1.497 0-2.384.718-2.384 1.468 0 2.643 10.973 2.35 10.973 9.41 0 3.447-3.065 6.937-8.925 6.937-4.209 0-7.805-1.77-9.429-3.502l3.42-4.097c1.343 1.323 4.027 2.56 6.238 2.56 1.272 0 2.29-.386 2.29-1.588" fill="#f9b411"/>
</svg>
